<svg xmlns="http://www.w3.org/2000/svg" xmlns:xlink="http://www.w3.org/1999/xlink" width="512" zoomAndPan="magnify" viewBox="0 0 384 383.999986" height="512" preserveAspectRatio="xMidYMid meet" version="1.0"><defs><clipPath id="36dd0b5e7d"><path d="M 38.1875 78.257812 L 345.6875 78.257812 L 345.6875 289 L 38.1875 289 Z M 38.1875 78.257812 " clip-rule="nonzero"/></clipPath></defs><g clip-path="url(#36dd0b5e7d)"><path fill="#000000" d="M 191.9375 78.71875 L 38.1875 159.53125 L 191.9375 240.339844 L 280.945312 195.390625 C 280.945312 195.390625 280.945312 236.132812 280.945312 256.5 C 280.945312 288.828125 313.316406 288.828125 313.316406 288.828125 L 313.316406 272.664062 C 313.316406 272.664062 297.132812 271.742188 297.132812 256.496094 C 297.132812 232.253906 297.132812 186.292969 297.132812 186.292969 L 345.6875 159.53125 Z M 191.9375 78.71875 " fill-opacity="1" fill-rule="nonzero"/></g><path fill="#000000" d="M 119.105469 224.179688 L 119.105469 256.503906 C 119.105469 264.535156 124.367188 275.289062 135.289062 280.746094 L 191.9375 304.988281 L 240.488281 280.746094 C 251.414062 275.289062 265.527344 264.492188 264.765625 256.5 L 264.765625 224.179688 L 191.9375 259.53125 Z M 119.105469 224.179688 " fill-opacity="1" fill-rule="nonzero"/></svg>