<svg xmlns="http://www.w3.org/2000/svg" xmlns:xlink="http://www.w3.org/1999/xlink" width="512" zoomAndPan="magnify" viewBox="0 0 384 383.999986" height="512" preserveAspectRatio="xMidYMid meet" version="1.0"><defs><clipPath id="e3edd22627"><path d="M 141 281 L 243 281 L 243 318.269531 L 141 318.269531 Z M 141 281 " clip-rule="nonzero"/></clipPath></defs><path fill="#000000" d="M 153.585938 196.847656 C 150.46875 193.273438 147.144531 189.460938 143.785156 185.160156 C 119.132812 179.414062 106.414062 163.664062 97.683594 137.125 C 79.941406 83.183594 98.15625 84.496094 112.824219 91.101562 C 112.53125 86.050781 112.347656 80.753906 112.289062 75.191406 C 93.863281 65.527344 61.097656 68.648438 81.515625 138.53125 C 101.226562 193.695312 130.429688 200.878906 157.84375 201.777344 C 156.507812 200.195312 155.085938 198.5625 153.585938 196.847656 " fill-opacity="1" fill-rule="nonzero"/><path fill="#000000" d="M 264.546875 71.011719 L 119.332031 71.011719 C 119.273438 193.210938 178.007812 185.644531 177.546875 230.988281 L 191.941406 230.921875 L 206.335938 230.988281 C 205.875 185.644531 264.605469 193.210938 264.546875 71.011719 " fill-opacity="1" fill-rule="nonzero"/><path fill="#000000" d="M 271.589844 75.191406 C 271.53125 80.757812 271.347656 86.050781 271.054688 91.101562 C 285.722656 84.496094 303.9375 83.183594 286.195312 137.125 C 277.46875 163.664062 264.75 179.414062 240.09375 185.160156 C 236.734375 189.460938 233.410156 193.273438 230.292969 196.847656 C 228.792969 198.566406 227.375 200.195312 226.035156 201.777344 C 253.449219 200.878906 282.652344 193.695312 302.367188 138.53125 C 322.78125 68.648438 290.015625 65.527344 271.589844 75.191406 " fill-opacity="1" fill-rule="nonzero"/><g clip-path="url(#e3edd22627)"><path fill="#000000" d="M 235.894531 282.316406 C 235.894531 282.101562 235.878906 281.890625 235.859375 281.683594 L 148.015625 281.683594 C 148 281.890625 147.984375 282.101562 147.984375 282.316406 L 147.984375 303.707031 L 141.164062 318.25 L 242.714844 318.25 L 235.894531 303.707031 L 235.894531 282.316406 " fill-opacity="1" fill-rule="nonzero"/></g><path fill="#000000" d="M 213.609375 260.074219 L 206.335938 260.074219 L 206.335938 238.054688 L 191.941406 237.984375 L 177.546875 238.054688 L 177.546875 260.074219 L 170.269531 260.074219 C 162.230469 260.074219 155.71875 266.585938 155.71875 274.617188 L 228.164062 274.617188 C 228.164062 266.585938 221.648438 260.074219 213.609375 260.074219 " fill-opacity="1" fill-rule="nonzero"/></svg>