<svg xmlns="http://www.w3.org/2000/svg" xmlns:xlink="http://www.w3.org/1999/xlink" width="512" zoomAndPan="magnify" viewBox="0 0 384 383.999986" height="512" preserveAspectRatio="xMidYMid meet" version="1.0"><defs><clipPath id="745dc1ea61"><path d="M 12 82.402344 L 372 82.402344 L 372 301.402344 L 12 301.402344 Z M 12 82.402344 " clip-rule="nonzero"/></clipPath></defs><g clip-path="url(#745dc1ea61)"><path fill="#1a1a1a" d="M 53.914062 82.402344 C 48.308594 82.402344 43.796875 86.8125 43.796875 92.292969 L 43.796875 273.226562 C 43.796875 278.4375 43.0625 282.679688 47.808594 283.085938 L 14.5625 283.085938 C 10.628906 283.085938 12.640625 286.148438 12.640625 289.953125 L 12.640625 294.535156 C 12.640625 298.339844 15.808594 301.402344 19.742188 301.402344 L 364.195312 301.402344 C 368.128906 301.402344 371.296875 298.339844 371.296875 294.535156 L 371.296875 289.953125 C 371.296875 286.148438 373.308594 283.085938 369.375 283.085938 L 336.128906 283.085938 C 340.875 282.679688 340.140625 278.4375 340.140625 273.226562 L 340.140625 92.292969 C 340.140625 86.8125 335.628906 82.402344 330.023438 82.402344 Z M 141.316406 84.800781 C 142.753906 84.800781 143.917969 85.941406 143.917969 87.347656 C 143.917969 88.753906 142.753906 89.890625 141.316406 89.890625 C 139.878906 89.890625 138.710938 88.753906 138.710938 87.347656 C 138.710938 85.941406 139.878906 84.800781 141.316406 84.800781 Z M 53.667969 92.3125 L 330.269531 92.3125 L 330.269531 273.207031 L 53.667969 273.207031 Z M 147.003906 283.117188 L 236.9375 283.117188 C 236.804688 285.03125 235.46875 286.527344 233.832031 286.527344 L 150.105469 286.527344 C 148.46875 286.527344 147.136719 285.03125 147.003906 283.117188 Z M 329.605469 288.535156 C 331.726562 288.535156 333.441406 290.195312 333.441406 292.246094 C 333.441406 294.292969 331.726562 295.953125 329.605469 295.953125 C 327.488281 295.953125 325.773438 294.292969 325.773438 292.246094 C 325.773438 290.195312 327.488281 288.535156 329.605469 288.535156 Z M 341.703125 288.535156 C 343.820312 288.535156 345.539062 290.195312 345.539062 292.246094 C 345.539062 294.292969 343.820312 295.953125 341.703125 295.953125 C 339.585938 295.953125 337.867188 294.292969 337.867188 292.246094 C 337.867188 290.195312 339.585938 288.535156 341.703125 288.535156 Z M 353.796875 288.535156 C 355.917969 288.535156 357.632812 290.195312 357.632812 292.246094 C 357.632812 294.292969 355.917969 295.953125 353.796875 295.953125 C 351.679688 295.953125 349.964844 294.292969 349.964844 292.246094 C 349.964844 290.195312 351.679688 288.535156 353.796875 288.535156 Z M 27.945312 290.992188 L 48.070312 290.992188 C 49.054688 290.992188 49.84375 291.550781 49.84375 292.246094 C 49.84375 292.9375 49.054688 293.496094 48.070312 293.496094 L 27.945312 293.496094 C 26.960938 293.496094 26.171875 292.9375 26.171875 292.246094 C 26.171875 291.550781 26.960938 290.992188 27.945312 290.992188 Z M 27.945312 290.992188 " fill-opacity="1" fill-rule="nonzero"/></g></svg>