<svg xmlns="http://www.w3.org/2000/svg" xmlns:xlink="http://www.w3.org/1999/xlink" width="500" zoomAndPan="magnify" viewBox="0 0 375 374.999991" height="500" preserveAspectRatio="xMidYMid meet" version="1.0"><defs><g/><clipPath id="8bc053320b"><path d="M 62.832031 42.761719 L 155 42.761719 L 155 321.488281 L 62.832031 321.488281 Z M 62.832031 42.761719 " clip-rule="nonzero"/></clipPath></defs><rect x="-37.5" width="450" fill="#ffffff" y="-37.499999" height="449.999989" fill-opacity="1"/><rect x="-37.5" width="450" fill="#ffffff" y="-37.499999" height="449.999989" fill-opacity="1"/><rect x="-37.5" width="450" fill="#ffffff" y="-37.499999" height="449.999989" fill-opacity="1"/><g fill="#010101" fill-opacity="1"><g transform="translate(74.928866, 311.452503)"><g><path d="M 39.605469 0 L 25.117188 -215.179688 C 24.875 -219.285156 26.082031 -221.703125 27.773438 -221.703125 C 28.980469 -221.703125 30.671875 -220.496094 32.121094 -217.835938 C 35.742188 -211.800781 118.578125 -56.269531 118.578125 -56.269531 C 118.578125 -56.269531 190.304688 -210.109375 194.410156 -217.835938 C 195.859375 -220.496094 197.308594 -221.703125 198.515625 -221.703125 C 200.207031 -221.703125 201.414062 -219.285156 201.414062 -215.179688 L 201.414062 0 L 221.703125 0 L 221.703125 -241.503906 L 199.484375 -241.503906 L 129.6875 -92.496094 C 127.996094 -89.117188 126.308594 -87.425781 124.375 -87.425781 C 122.441406 -87.425781 120.511719 -89.117188 118.820312 -92.253906 L 39.125 -241.503906 L 19.320312 -241.503906 L 19.320312 0 Z M 39.605469 0 "/></g></g></g><g clip-path="url(#8bc053320b)"><path fill="#ffffff" d="M 62.832031 42.761719 L 154.667969 42.761719 L 154.667969 321.800781 L 62.832031 321.800781 Z M 62.832031 42.761719 " fill-opacity="1" fill-rule="nonzero"/></g><g fill="#000000" fill-opacity="1"><g transform="translate(-2.510719, 311.452503)"><g><path d="M 16.90625 30.914062 C 25.839844 36.949219 35.984375 39.605469 50.957031 39.605469 C 93.703125 39.605469 108.917969 6.039062 108.917969 -16.664062 L 108.917969 -241.503906 L 89.597656 -241.503906 L 89.597656 -10.144531 C 89.597656 11.59375 78.730469 34.777344 49.027344 34.777344 C 35.742188 34.777344 25.839844 31.394531 19.804688 26.324219 Z M 16.90625 30.914062 "/></g></g></g><g fill="#000000" fill-opacity="1"><g transform="translate(314.625334, 74.126526)"><g><path d="M 1.703125 -18.476562 L 1.703125 -8.953125 C 6.9375 -3.277344 15.195312 0 25.726562 0 C 43.253906 0 52.335938 -7.566406 52.335938 -18.476562 C 52.335938 -27.429688 46.785156 -32.660156 35.5625 -34.867188 C 33.671875 -35.246094 33.355469 -35.6875 35.4375 -36.382812 C 40.164062 -37.957031 47.921875 -41.613281 47.921875 -50.0625 C 47.921875 -60.53125 37.707031 -65.574219 25.222656 -65.574219 C 13.179688 -65.574219 4.097656 -61.160156 4.097656 -53.59375 C 4.097656 -48.425781 7.441406 -46.46875 10.214844 -46.597656 C 12.042969 -46.660156 13.996094 -47.792969 13.996094 -49.433594 C 10.972656 -49.433594 9.078125 -51.453125 9.078125 -54.476562 C 9.078125 -59.460938 13.113281 -64.3125 25.410156 -64.3125 C 35.625 -64.3125 42.625 -58.578125 42.625 -49.496094 C 42.625 -39.597656 31.335938 -35.75 26.230469 -35.75 C 20.113281 -35.75 15.257812 -36.632812 11.789062 -37.769531 L 11.789062 -32.285156 C 15.132812 -33.542969 19.292969 -34.554688 24.78125 -34.554688 C 35.121094 -34.554688 47.164062 -29.886719 47.164062 -18.097656 C 47.164062 -9.078125 40.164062 -1.261719 28.246094 -1.261719 C 15.699219 -1.261719 8.007812 -7.753906 1.703125 -18.476562 Z M 1.703125 -18.476562 "/></g></g></g></svg>