<svg xmlns="http://www.w3.org/2000/svg" xmlns:xlink="http://www.w3.org/1999/xlink" width="2000" zoomAndPan="magnify" viewBox="0 0 1500 374.999991" height="500" preserveAspectRatio="xMidYMid meet" version="1.0"><defs><g/><clipPath id="db1420a425"><path d="M 400.195312 60.621094 L 475.820312 60.621094 L 475.820312 288.746094 L 400.195312 288.746094 Z M 400.195312 60.621094 " clip-rule="nonzero"/></clipPath></defs><g fill="#010101" fill-opacity="1"><g transform="translate(410.094975, 280.532304)"><g><path d="M 32.417969 0 L 20.554688 -176.113281 C 20.359375 -179.472656 21.347656 -181.449219 22.730469 -181.449219 C 23.71875 -181.449219 25.101562 -180.460938 26.289062 -178.289062 C 29.253906 -173.347656 97.050781 -46.054688 97.050781 -46.054688 C 97.050781 -46.054688 155.753906 -171.964844 159.117188 -178.289062 C 160.300781 -180.460938 161.488281 -181.449219 162.476562 -181.449219 C 163.859375 -181.449219 164.847656 -179.472656 164.847656 -176.113281 L 164.847656 0 L 181.449219 0 L 181.449219 -197.660156 L 163.265625 -197.660156 L 106.144531 -75.703125 C 104.757812 -72.9375 103.375 -71.550781 101.792969 -71.550781 C 100.214844 -71.550781 98.632812 -72.9375 97.25 -75.503906 L 32.019531 -197.660156 L 15.8125 -197.660156 L 15.8125 0 Z M 32.417969 0 "/></g></g></g><g clip-path="url(#db1420a425)"><path fill="#ffffff" d="M 400.195312 60.621094 L 475.355469 60.621094 L 475.355469 289 L 400.195312 289 Z M 400.195312 60.621094 " fill-opacity="1" fill-rule="nonzero"/></g><g fill="#000000" fill-opacity="1"><g transform="translate(346.714925, 280.532304)"><g><path d="M 13.835938 25.300781 C 21.148438 30.242188 29.449219 32.417969 41.707031 32.417969 C 76.691406 32.417969 89.144531 4.941406 89.144531 -13.636719 L 89.144531 -197.660156 L 73.332031 -197.660156 L 73.332031 -8.300781 C 73.332031 9.488281 64.4375 28.460938 40.125 28.460938 C 29.253906 28.460938 21.148438 25.695312 16.207031 21.542969 Z M 13.835938 25.300781 "/></g></g></g><g fill="#000000" fill-opacity="1"><g transform="translate(606.273434, 86.293979)"><g><path d="M 1.394531 -15.121094 L 1.394531 -7.328125 C 5.675781 -2.683594 12.4375 0 21.054688 0 C 35.402344 0 42.832031 -6.191406 42.832031 -15.121094 C 42.832031 -22.449219 38.292969 -26.730469 29.105469 -28.539062 C 27.558594 -28.847656 27.300781 -29.207031 29.003906 -29.777344 C 32.871094 -31.066406 39.21875 -34.058594 39.21875 -40.976562 C 39.21875 -49.542969 30.859375 -53.671875 20.640625 -53.671875 C 10.785156 -53.671875 3.355469 -50.058594 3.355469 -43.863281 C 3.355469 -39.632812 6.089844 -38.035156 8.359375 -38.136719 C 9.855469 -38.1875 11.457031 -39.117188 11.457031 -40.457031 C 8.980469 -40.457031 7.429688 -42.109375 7.429688 -44.585938 C 7.429688 -48.664062 10.734375 -52.636719 20.796875 -52.636719 C 29.15625 -52.636719 34.886719 -47.941406 34.886719 -40.511719 C 34.886719 -32.410156 25.648438 -29.261719 21.46875 -29.261719 C 16.460938 -29.261719 12.488281 -29.984375 9.648438 -30.910156 L 9.648438 -26.421875 C 12.386719 -27.453125 15.792969 -28.28125 20.28125 -28.28125 C 28.746094 -28.28125 38.601562 -24.460938 38.601562 -14.8125 C 38.601562 -7.429688 32.871094 -1.03125 23.121094 -1.03125 C 12.851562 -1.03125 6.554688 -6.347656 1.394531 -15.121094 Z M 1.394531 -15.121094 "/></g></g></g><g fill="#000000" fill-opacity="1"><g transform="translate(686.274784, 285.807505)"><g><path d="M 17.320312 0 L 17.320312 -51.746094 C 17.320312 -54.992188 19.484375 -56.507812 22.734375 -56.507812 C 34.75 -56.507812 60.296875 -53.152344 73.070312 -50.015625 L 73.070312 -59.105469 L 22.625 -59.105469 C 19.378906 -59.105469 17.210938 -61.273438 17.210938 -64.519531 L 17.210938 -98.726562 C 17.210938 -104.574219 19.054688 -106.089844 22.949219 -106.089844 C 42.652344 -106.089844 72.640625 -102.300781 83.679688 -98.621094 L 83.679688 -108.253906 L 8.660156 -108.253906 L 8.660156 0 Z M 17.320312 0 "/></g></g></g><g fill="#000000" fill-opacity="1"><g transform="translate(800.805752, 285.807505)"><g><path d="M 8.660156 0 L 17.320312 0 L 17.320312 -108.253906 L 8.660156 -108.253906 Z M 8.660156 0 "/></g></g></g><g fill="#000000" fill-opacity="1"><g transform="translate(851.14513, 285.807505)"><g><path d="M 8.660156 0 L 17.753906 0 L 11.257812 -96.457031 C 11.148438 -98.296875 11.582031 -99.269531 12.339844 -99.269531 C 12.882812 -99.269531 13.640625 -98.726562 14.398438 -97.644531 C 41.351562 -59.539062 60.730469 -32.367188 83.679688 0 L 92.339844 0 L 92.339844 -108.253906 L 83.246094 -108.253906 L 89.742188 -11.800781 C 89.851562 -9.960938 89.417969 -8.984375 88.660156 -8.984375 C 88.121094 -8.984375 87.363281 -9.527344 86.605469 -10.609375 C 61.921875 -45.46875 39.511719 -77.078125 17.539062 -108.253906 L 8.660156 -108.253906 Z M 8.660156 0 "/></g></g></g><g fill="#000000" fill-opacity="1"><g transform="translate(976.500991, 285.807505)"><g><path d="M 11.691406 0 L 17.429688 -20.242188 C 18.402344 -23.707031 21 -28.363281 23.382812 -30.09375 C 29.660156 -34.640625 36.480469 -36.808594 43.410156 -36.808594 C 55.644531 -36.808594 71.882812 -29.554688 77.1875 -17.644531 L 85.089844 0 L 94.613281 0 L 46.332031 -108.253906 L 36.808594 -108.253906 L 39.078125 -103.167969 L 2.164062 0 Z M 23.492188 -41.027344 L 38.863281 -94.507812 C 39.40625 -96.238281 40.054688 -97.105469 40.8125 -97.105469 C 41.460938 -97.105469 42.21875 -96.347656 42.867188 -94.832031 L 70.796875 -32.261719 C 72.097656 -29.335938 71.449219 -28.796875 68.957031 -30.851562 C 60.730469 -37.566406 50.339844 -42.4375 40.164062 -42.4375 C 35.398438 -42.4375 30.746094 -41.351562 26.414062 -38.972656 C 25.332031 -38.429688 24.574219 -38.105469 24.03125 -38.105469 C 23.058594 -38.105469 22.949219 -39.078125 23.492188 -41.027344 Z M 23.492188 -41.027344 "/></g></g></g><g fill="#000000" fill-opacity="1"><g transform="translate(1095.794923, 285.807505)"><g><path d="M 8.660156 0 L 17.753906 0 L 11.257812 -96.457031 C 11.148438 -98.296875 11.582031 -99.269531 12.339844 -99.269531 C 12.882812 -99.269531 13.640625 -98.726562 14.398438 -97.644531 C 41.351562 -59.539062 60.730469 -32.367188 83.679688 0 L 92.339844 0 L 92.339844 -108.253906 L 83.246094 -108.253906 L 89.742188 -11.800781 C 89.851562 -9.960938 89.417969 -8.984375 88.660156 -8.984375 C 88.121094 -8.984375 87.363281 -9.527344 86.605469 -10.609375 C 61.921875 -45.46875 39.511719 -77.078125 17.539062 -108.253906 L 8.660156 -108.253906 Z M 8.660156 0 "/></g></g></g><g fill="#000000" fill-opacity="1"><g transform="translate(1221.150766, 285.807505)"><g><path d="M 5.414062 -54.128906 C 5.414062 -20.351562 29.660156 2.164062 59.433594 2.164062 C 77.945312 2.164062 95.699219 -3.574219 101 -11.582031 L 101 -23.707031 C 92.667969 -11.800781 76.429688 0 59.433594 0 C 34.425781 0 14.074219 -21.652344 14.074219 -54.128906 C 14.074219 -86.605469 34.425781 -108.253906 59.433594 -108.253906 C 77.945312 -108.253906 93.75 -95.480469 95.371094 -83.355469 C 95.371094 -83.355469 100.242188 -83.140625 100.242188 -89.308594 C 100.242188 -103.273438 79.027344 -110.421875 59.433594 -110.421875 C 29.660156 -110.421875 5.414062 -87.902344 5.414062 -54.128906 Z M 5.414062 -54.128906 "/></g></g></g><g fill="#000000" fill-opacity="1"><g transform="translate(1351.810843, 285.807505)"><g><path d="M 8.660156 0 L 83.679688 0 L 83.679688 -9.632812 C 72.640625 -5.953125 42.652344 -2.164062 22.949219 -2.164062 C 19.054688 -2.164062 17.210938 -3.679688 17.210938 -9.527344 L 17.320312 -51.746094 C 17.320312 -54.992188 19.484375 -56.507812 22.734375 -56.507812 C 34.75 -56.507812 60.296875 -53.152344 73.070312 -50.015625 L 73.070312 -59.105469 L 22.625 -59.105469 C 19.378906 -59.105469 17.210938 -61.273438 17.210938 -64.519531 L 17.210938 -98.726562 C 17.210938 -104.574219 19.054688 -106.089844 22.949219 -106.089844 C 42.652344 -106.089844 72.640625 -102.300781 83.679688 -98.621094 L 83.679688 -108.253906 L 8.660156 -108.253906 Z M 8.660156 0 "/></g></g></g></svg>