<svg xmlns="http://www.w3.org/2000/svg" xmlns:xlink="http://www.w3.org/1999/xlink" width="500" zoomAndPan="magnify" viewBox="0 0 375 374.999991" height="500" preserveAspectRatio="xMidYMid meet" version="1.0"><defs><g/><clipPath id="408db9b285"><path d="M 191.414062 103.042969 L 212.007812 103.042969 L 212.007812 132.429688 L 191.414062 132.429688 Z M 191.414062 103.042969 " clip-rule="nonzero"/></clipPath><clipPath id="1b99743d35"><path d="M 71.957031 119.042969 L 143.550781 119.042969 L 143.550781 313.800781 L 71.957031 313.800781 Z M 71.957031 119.042969 " clip-rule="nonzero"/></clipPath></defs><g clip-path="url(#408db9b285)"><path fill="#ffffff" d="M 191.414062 103.042969 L 212.203125 103.042969 L 212.203125 132.273438 L 191.414062 132.273438 Z M 191.414062 103.042969 " fill-opacity="1" fill-rule="nonzero"/></g><g fill="#000000" fill-opacity="1"><g transform="translate(83.045008, 296.519216)"><g><path d="M 218.15625 -167.875 C 212.625 -167.550781 208.632812 -166.898438 206.1875 -165.921875 C 203.75 -164.953125 202.082031 -163.082031 201.1875 -160.3125 C 200.289062 -157.550781 199.84375 -153.078125 199.84375 -146.890625 L 199.84375 -25.859375 C 199.84375 -19.679688 200.289062 -15.207031 201.1875 -12.4375 C 202.082031 -9.675781 203.789062 -7.804688 206.3125 -6.828125 C 208.832031 -5.859375 212.78125 -5.207031 218.15625 -4.875 L 218.15625 0 C 209.207031 -0.488281 196.4375 -0.734375 179.84375 -0.734375 C 162.4375 -0.734375 149.582031 -0.488281 141.28125 0 L 141.28125 -4.875 C 147.132812 -5.207031 151.40625 -5.859375 154.09375 -6.828125 C 156.78125 -7.804688 158.609375 -9.675781 159.578125 -12.4375 C 160.554688 -15.207031 161.046875 -19.679688 161.046875 -25.859375 L 161.046875 -153.484375 L 102.25 0.25 L 98.34375 0.25 L 32.453125 -156.90625 L 32.453125 -40.015625 C 32.453125 -30.421875 32.9375 -23.382812 33.90625 -18.90625 C 34.882812 -14.4375 37 -11.179688 40.25 -9.140625 C 43.507812 -7.109375 48.800781 -5.6875 56.125 -4.875 L 56.125 0 C 49.78125 -0.488281 40.992188 -0.734375 29.765625 -0.734375 C 20.816406 -0.734375 13.742188 -0.488281 8.546875 0 L 8.546875 -4.875 C 13.910156 -5.6875 17.851562 -7.066406 20.375 -9.015625 C 22.894531 -10.972656 24.601562 -14.066406 25.5 -18.296875 C 26.394531 -22.523438 26.84375 -28.789062 26.84375 -37.09375 L 26.84375 -146.890625 C 26.84375 -153.078125 26.394531 -157.550781 25.5 -160.3125 C 24.601562 -163.082031 22.894531 -164.953125 20.375 -165.921875 C 17.851562 -166.898438 13.910156 -167.550781 8.546875 -167.875 L 8.546875 -172.765625 C 13.742188 -172.273438 20.816406 -172.03125 29.765625 -172.03125 C 44.734375 -172.03125 57.585938 -172.273438 68.328125 -172.765625 L 117.609375 -53.921875 L 162.515625 -172.03125 L 179.84375 -172.03125 C 196.4375 -172.03125 209.207031 -172.273438 218.15625 -172.765625 Z M 218.15625 -167.875 "/></g></g></g><g clip-path="url(#1b99743d35)"><path fill="#ffffff" d="M 71.957031 119.042969 L 143.597656 119.042969 L 143.597656 313.667969 L 71.957031 313.667969 Z M 71.957031 119.042969 " fill-opacity="1" fill-rule="nonzero"/></g><g fill="#000000" fill-opacity="1"><g transform="translate(55.855165, 276.009432)"><g><path d="M -5.53125 40.421875 C 1.207031 39.785156 6.78125 37.820312 11.1875 34.53125 C 15.601562 31.238281 18.972656 25.78125 21.296875 18.15625 C 23.617188 10.539062 24.78125 0.15625 24.78125 -13 L 24.78125 -144.859375 C 24.78125 -150.953125 24.335938 -155.363281 23.453125 -158.09375 C 22.578125 -160.820312 20.894531 -162.664062 18.40625 -163.625 C 15.914062 -164.582031 12.023438 -165.222656 6.734375 -165.546875 L 6.734375 -170.359375 C 14.753906 -169.878906 26.867188 -169.640625 43.078125 -169.640625 C 59.597656 -169.640625 72.269531 -169.878906 81.09375 -170.359375 L 81.09375 -165.546875 C 75.632812 -165.222656 71.703125 -164.582031 69.296875 -163.625 C 66.890625 -162.664062 65.242188 -160.820312 64.359375 -158.09375 C 63.484375 -155.363281 63.046875 -150.953125 63.046875 -144.859375 L 63.046875 -42.109375 C 63.046875 -19.492188 61.679688 -3.453125 58.953125 6.015625 C 55.585938 17.722656 48.410156 27.1875 37.421875 34.40625 C 26.429688 41.625 12.113281 45.234375 -5.53125 45.234375 Z M -5.53125 40.421875 "/></g></g></g><g fill="#000000" fill-opacity="1"><g transform="translate(308.835959, 102.238768)"><g><path d="M 23.171875 -50.015625 C 27.878906 -50.015625 31.738281 -49.039062 34.75 -47.09375 C 37.769531 -45.144531 39.28125 -42.507812 39.28125 -39.1875 C 39.28125 -35.601562 37.550781 -32.398438 34.09375 -29.578125 C 30.644531 -26.753906 26 -24.773438 20.15625 -23.640625 C 26.75 -23.890625 32.148438 -22.742188 36.359375 -20.203125 C 40.566406 -17.660156 42.671875 -14.035156 42.671875 -9.328125 C 42.671875 -4.742188 40.691406 -0.648438 36.734375 2.953125 C 32.773438 6.566406 27.703125 9.347656 21.515625 11.296875 C 15.335938 13.242188 9.078125 14.21875 2.734375 14.21875 L 2.734375 12.34375 C 6.878906 12.21875 10.941406 11.289062 14.921875 9.5625 C 18.910156 7.832031 22.191406 5.363281 24.765625 2.15625 C 27.347656 -1.039062 28.640625 -4.835938 28.640625 -9.234375 C 28.640625 -12.929688 27.742188 -15.972656 25.953125 -18.359375 C 24.160156 -20.753906 21.757812 -22.078125 18.75 -22.328125 C 17.863281 -21.878906 16.992188 -21.515625 16.140625 -21.234375 C 15.296875 -20.953125 14.5625 -20.8125 13.9375 -20.8125 C 12.75 -20.8125 12.15625 -21.253906 12.15625 -22.140625 C 12.15625 -22.828125 12.4375 -23.34375 13 -23.6875 C 13.5625 -24.03125 14.285156 -24.203125 15.171875 -24.203125 C 15.546875 -24.203125 16.0625 -24.15625 16.71875 -24.0625 C 17.375 -23.96875 17.953125 -23.890625 18.453125 -23.828125 C 23.296875 -27.222656 25.71875 -31.429688 25.71875 -36.453125 C 25.71875 -39.273438 24.992188 -41.359375 23.546875 -42.703125 C 22.097656 -44.054688 20.023438 -44.734375 17.328125 -44.734375 C 14.816406 -44.734375 12.507812 -44.101562 10.40625 -42.84375 C 8.300781 -41.59375 6.53125 -39.773438 5.09375 -37.390625 L 3.390625 -38.234375 C 5.335938 -41.816406 7.863281 -44.675781 10.96875 -46.8125 C 14.082031 -48.945312 18.148438 -50.015625 23.171875 -50.015625 Z M 23.171875 -50.015625 "/></g></g></g></svg>