<svg xmlns="http://www.w3.org/2000/svg" xmlns:xlink="http://www.w3.org/1999/xlink" width="2000" zoomAndPan="magnify" viewBox="0 0 1500 374.999991" height="500" preserveAspectRatio="xMidYMid meet" version="1.0"><defs><g/><clipPath id="21daa849a0"><path d="M 577.375 74.226562 L 603.300781 74.226562 L 603.300781 111.226562 L 577.375 111.226562 Z M 577.375 74.226562 " clip-rule="nonzero"/></clipPath><clipPath id="da78e99a1b"><path d="M 426.957031 94.371094 L 517.101562 94.371094 L 517.101562 339.601562 L 426.957031 339.601562 Z M 426.957031 94.371094 " clip-rule="nonzero"/></clipPath></defs><g clip-path="url(#21daa849a0)"><path fill="#ffffff" d="M 577.375 74.226562 L 603.546875 74.226562 L 603.546875 111.03125 L 577.375 111.03125 Z M 577.375 74.226562 " fill-opacity="1" fill-rule="nonzero"/></g><g fill="#000000" fill-opacity="1"><g transform="translate(440.917501, 317.842535)"><g><path d="M 274.703125 -211.40625 C 267.734375 -210.988281 262.710938 -210.164062 259.640625 -208.9375 C 256.566406 -207.707031 254.46875 -205.351562 253.34375 -201.875 C 252.21875 -198.394531 251.65625 -192.757812 251.65625 -184.96875 L 251.65625 -32.5625 C 251.65625 -24.78125 252.21875 -19.148438 253.34375 -15.671875 C 254.46875 -12.191406 256.617188 -9.835938 259.796875 -8.609375 C 262.972656 -7.378906 267.941406 -6.554688 274.703125 -6.140625 L 274.703125 0 C 263.429688 -0.613281 247.347656 -0.921875 226.453125 -0.921875 C 204.535156 -0.921875 188.351562 -0.613281 177.90625 0 L 177.90625 -6.140625 C 185.28125 -6.554688 190.65625 -7.378906 194.03125 -8.609375 C 197.414062 -9.835938 199.722656 -12.191406 200.953125 -15.671875 C 202.179688 -19.148438 202.796875 -24.78125 202.796875 -32.5625 L 202.796875 -193.265625 L 128.75 0.3125 L 123.828125 0.3125 L 40.859375 -197.578125 L 40.859375 -50.390625 C 40.859375 -38.304688 41.472656 -29.445312 42.703125 -23.8125 C 43.929688 -18.175781 46.59375 -14.078125 50.6875 -11.515625 C 54.789062 -8.960938 61.453125 -7.171875 70.671875 -6.140625 L 70.671875 0 C 62.679688 -0.613281 51.617188 -0.921875 37.484375 -0.921875 C 26.222656 -0.921875 17.3125 -0.613281 10.75 0 L 10.75 -6.140625 C 17.507812 -7.171875 22.476562 -8.914062 25.65625 -11.375 C 28.832031 -13.832031 30.984375 -17.722656 32.109375 -23.046875 C 33.234375 -28.367188 33.796875 -36.253906 33.796875 -46.703125 L 33.796875 -184.96875 C 33.796875 -192.757812 33.234375 -198.394531 32.109375 -201.875 C 30.984375 -205.351562 28.832031 -207.707031 25.65625 -208.9375 C 22.476562 -210.164062 17.507812 -210.988281 10.75 -211.40625 L 10.75 -217.546875 C 17.3125 -216.929688 26.222656 -216.625 37.484375 -216.625 C 56.328125 -216.625 72.507812 -216.929688 86.03125 -217.546875 L 148.109375 -67.90625 L 204.640625 -216.625 L 226.453125 -216.625 C 247.347656 -216.625 263.429688 -216.929688 274.703125 -217.546875 Z M 274.703125 -211.40625 "/></g></g></g><g clip-path="url(#da78e99a1b)"><path fill="#ffffff" d="M 426.957031 94.371094 L 517.164062 94.371094 L 517.164062 339.4375 L 426.957031 339.4375 Z M 426.957031 94.371094 " fill-opacity="1" fill-rule="nonzero"/></g><g fill="#000000" fill-opacity="1"><g transform="translate(406.681143, 292.017438)"><g><path d="M -6.96875 50.90625 C 1.507812 50.09375 8.523438 47.613281 14.078125 43.46875 C 19.640625 39.332031 23.882812 32.46875 26.8125 22.875 C 29.738281 13.28125 31.203125 0.203125 31.203125 -16.359375 L 31.203125 -182.390625 C 31.203125 -190.066406 30.644531 -195.617188 29.53125 -199.046875 C 28.425781 -202.484375 26.304688 -204.804688 23.171875 -206.015625 C 20.046875 -207.234375 15.148438 -208.039062 8.484375 -208.4375 L 8.484375 -214.5 C 18.578125 -213.894531 33.828125 -213.59375 54.234375 -213.59375 C 75.035156 -213.59375 90.988281 -213.894531 102.09375 -214.5 L 102.09375 -208.4375 C 95.226562 -208.039062 90.28125 -207.234375 87.25 -206.015625 C 84.21875 -204.804688 82.144531 -202.484375 81.03125 -199.046875 C 79.925781 -195.617188 79.375 -190.066406 79.375 -182.390625 L 79.375 -53.015625 C 79.375 -24.535156 77.660156 -4.335938 74.234375 7.578125 C 69.984375 22.316406 60.941406 34.226562 47.109375 43.3125 C 33.273438 52.40625 15.25 56.953125 -6.96875 56.953125 Z M -6.96875 50.90625 "/></g></g></g><g fill="#000000" fill-opacity="1"><g transform="translate(725.224304, 73.212448)"><g><path d="M 29.171875 -62.96875 C 35.097656 -62.96875 39.957031 -61.742188 43.75 -59.296875 C 47.550781 -56.847656 49.453125 -53.523438 49.453125 -49.328125 C 49.453125 -44.828125 47.273438 -40.796875 42.921875 -37.234375 C 38.578125 -33.679688 32.726562 -31.191406 25.375 -29.765625 C 33.675781 -30.078125 40.472656 -28.632812 45.765625 -25.4375 C 51.066406 -22.238281 53.71875 -17.671875 53.71875 -11.734375 C 53.71875 -5.960938 51.226562 -0.804688 46.25 3.734375 C 41.269531 8.285156 34.882812 11.785156 27.09375 14.234375 C 19.3125 16.679688 11.425781 17.90625 3.4375 17.90625 L 3.4375 15.53125 C 8.65625 15.375 13.773438 14.207031 18.796875 12.03125 C 23.816406 9.863281 27.945312 6.757812 31.1875 2.71875 C 34.425781 -1.3125 36.046875 -6.09375 36.046875 -11.625 C 36.046875 -16.289062 34.921875 -20.125 32.671875 -23.125 C 30.421875 -26.125 27.394531 -27.785156 23.59375 -28.109375 C 22.488281 -27.554688 21.398438 -27.097656 20.328125 -26.734375 C 19.265625 -26.378906 18.335938 -26.203125 17.546875 -26.203125 C 16.046875 -26.203125 15.296875 -26.757812 15.296875 -27.875 C 15.296875 -28.738281 15.648438 -29.390625 16.359375 -29.828125 C 17.078125 -30.265625 17.988281 -30.484375 19.09375 -30.484375 C 19.570312 -30.484375 20.222656 -30.421875 21.046875 -30.296875 C 21.878906 -30.179688 22.613281 -30.082031 23.25 -30 C 29.332031 -34.269531 32.375 -39.566406 32.375 -45.890625 C 32.375 -49.453125 31.460938 -52.082031 29.640625 -53.78125 C 27.828125 -55.476562 25.222656 -56.328125 21.828125 -56.328125 C 18.660156 -56.328125 15.75 -55.535156 13.09375 -53.953125 C 10.445312 -52.378906 8.21875 -50.085938 6.40625 -47.078125 L 4.265625 -48.15625 C 6.722656 -52.65625 9.90625 -56.25 13.8125 -58.9375 C 17.726562 -61.625 22.847656 -62.96875 29.171875 -62.96875 Z M 29.171875 -62.96875 "/></g></g></g><g fill="#000000" fill-opacity="1"><g transform="translate(774.230076, 304.597994)"><g><path d="M 72.578125 -94.984375 C 71.953125 -88.628906 71.640625 -82.90625 71.640625 -77.8125 C 71.640625 -73.34375 71.773438 -69.675781 72.046875 -66.8125 L 68.953125 -66.8125 C 68.242188 -73.695312 67.347656 -78.816406 66.265625 -82.171875 C 65.191406 -85.523438 63.3125 -87.984375 60.625 -89.546875 C 57.945312 -91.109375 53.835938 -91.890625 48.296875 -91.890625 L 39.84375 -91.890625 C 36.625 -91.890625 34.273438 -91.644531 32.796875 -91.15625 C 31.328125 -90.664062 30.320312 -89.660156 29.78125 -88.140625 C 29.25 -86.617188 28.984375 -84.160156 28.984375 -80.765625 L 28.984375 -47.765625 L 38.765625 -47.765625 C 41.898438 -47.765625 44.316406 -48.5 46.015625 -49.96875 C 47.710938 -51.445312 48.851562 -53.191406 49.4375 -55.203125 C 50.019531 -57.210938 50.488281 -59.738281 50.84375 -62.78125 L 51.25 -65.46875 L 54.328125 -65.46875 C 54.066406 -61.707031 53.9375 -57.503906 53.9375 -52.859375 L 53.9375 -46.421875 C 53.9375 -41.859375 54.203125 -35.507812 54.734375 -27.375 L 51.65625 -27.375 C 51.5625 -28 51.289062 -30.164062 50.84375 -33.875 C 50.394531 -37.582031 49.164062 -40.375 47.15625 -42.25 C 45.144531 -44.132812 42.347656 -45.078125 38.765625 -45.078125 L 28.984375 -45.078125 L 28.984375 -14.21875 C 28.984375 -10.820312 29.335938 -8.363281 30.046875 -6.84375 C 30.765625 -5.320312 32.015625 -4.289062 33.796875 -3.75 C 35.585938 -3.21875 38.5 -2.863281 42.53125 -2.6875 L 42.53125 0 C 37.875 -0.269531 31.300781 -0.40625 22.8125 -0.40625 C 15.113281 -0.40625 9.390625 -0.269531 5.640625 0 L 5.640625 -2.6875 C 8.859375 -2.863281 11.203125 -3.21875 12.671875 -3.75 C 14.148438 -4.289062 15.15625 -5.320312 15.6875 -6.84375 C 16.226562 -8.363281 16.5 -10.820312 16.5 -14.21875 L 16.5 -80.765625 C 16.5 -84.160156 16.226562 -86.617188 15.6875 -88.140625 C 15.15625 -89.660156 14.148438 -90.6875 12.671875 -91.21875 C 11.203125 -91.757812 8.859375 -92.117188 5.640625 -92.296875 L 5.640625 -94.984375 C 14.398438 -94.710938 27.367188 -94.578125 44.546875 -94.578125 C 57.691406 -94.578125 67.035156 -94.710938 72.578125 -94.984375 Z M 72.578125 -94.984375 "/></g></g></g><g fill="#000000" fill-opacity="1"><g transform="translate(864.376601, 304.597994)"><g><path d="M 39.84375 -92.296875 C 36.625 -92.117188 34.273438 -91.757812 32.796875 -91.21875 C 31.328125 -90.6875 30.320312 -89.660156 29.78125 -88.140625 C 29.25 -86.617188 28.984375 -84.160156 28.984375 -80.765625 L 28.984375 -14.21875 C 28.984375 -10.820312 29.25 -8.363281 29.78125 -6.84375 C 30.320312 -5.320312 31.328125 -4.289062 32.796875 -3.75 C 34.273438 -3.21875 36.625 -2.863281 39.84375 -2.6875 L 39.84375 0 C 35.726562 -0.269531 30.050781 -0.40625 22.8125 -0.40625 C 15.113281 -0.40625 9.390625 -0.269531 5.640625 0 L 5.640625 -2.6875 C 8.859375 -2.863281 11.203125 -3.21875 12.671875 -3.75 C 14.148438 -4.289062 15.15625 -5.320312 15.6875 -6.84375 C 16.226562 -8.363281 16.5 -10.820312 16.5 -14.21875 L 16.5 -80.765625 C 16.5 -84.160156 16.226562 -86.617188 15.6875 -88.140625 C 15.15625 -89.660156 14.148438 -90.6875 12.671875 -91.21875 C 11.203125 -91.757812 8.859375 -92.117188 5.640625 -92.296875 L 5.640625 -94.984375 C 9.390625 -94.710938 15.113281 -94.578125 22.8125 -94.578125 C 29.957031 -94.578125 35.632812 -94.710938 39.84375 -94.984375 Z M 39.84375 -92.296875 "/></g></g></g><g fill="#000000" fill-opacity="1"><g transform="translate(923.669867, 304.597994)"><g><path d="M 89.890625 -92.296875 C 86.753906 -92.117188 84.425781 -91.648438 82.90625 -90.890625 C 81.382812 -90.128906 80.351562 -88.875 79.8125 -87.125 C 79.28125 -85.382812 79.015625 -82.816406 79.015625 -79.421875 L 79.015625 0.671875 L 75.9375 0.671875 L 19.59375 -86.390625 L 19.59375 -15.5625 C 19.59375 -12.070312 19.878906 -9.476562 20.453125 -7.78125 C 21.035156 -6.082031 22.175781 -4.851562 23.875 -4.09375 C 25.570312 -3.332031 28.210938 -2.863281 31.796875 -2.6875 L 31.796875 0 C 28.578125 -0.269531 24.015625 -0.40625 18.109375 -0.40625 C 12.742188 -0.40625 8.585938 -0.269531 5.640625 0 L 5.640625 -2.6875 C 8.765625 -2.863281 11.085938 -3.332031 12.609375 -4.09375 C 14.128906 -4.851562 15.15625 -6.101562 15.6875 -7.84375 C 16.226562 -9.59375 16.5 -12.164062 16.5 -15.5625 L 16.5 -80.765625 C 16.5 -84.160156 16.226562 -86.617188 15.6875 -88.140625 C 15.15625 -89.660156 14.148438 -90.6875 12.671875 -91.21875 C 11.203125 -91.757812 8.859375 -92.117188 5.640625 -92.296875 L 5.640625 -94.984375 C 8.585938 -94.710938 12.742188 -94.578125 18.109375 -94.578125 C 22.128906 -94.578125 25.617188 -94.710938 28.578125 -94.984375 L 75.9375 -22 L 75.9375 -79.421875 C 75.9375 -82.910156 75.644531 -85.503906 75.0625 -87.203125 C 74.476562 -88.898438 73.335938 -90.128906 71.640625 -90.890625 C 69.941406 -91.648438 67.300781 -92.117188 63.71875 -92.296875 L 63.71875 -94.984375 C 66.9375 -94.710938 71.5 -94.578125 77.40625 -94.578125 C 82.769531 -94.578125 86.929688 -94.710938 89.890625 -94.984375 Z M 89.890625 -92.296875 "/></g></g></g><g fill="#000000" fill-opacity="1"><g transform="translate(1032.194193, 304.597994)"><g><path d="M 76.0625 -11.265625 C 78.207031 -5.722656 81.296875 -2.863281 85.328125 -2.6875 L 85.328125 0 C 81.742188 -0.269531 76.957031 -0.40625 70.96875 -0.40625 C 63.28125 -0.40625 57.554688 -0.269531 53.796875 0 L 53.796875 -2.6875 C 57.191406 -2.863281 59.628906 -3.285156 61.109375 -3.953125 C 62.585938 -4.628906 63.328125 -5.859375 63.328125 -7.640625 C 63.328125 -9.160156 62.789062 -11.265625 61.71875 -13.953125 L 53.53125 -35.953125 L 21.0625 -35.953125 L 15.5625 -21.734375 C 13.769531 -16.898438 12.875 -13.234375 12.875 -10.734375 C 12.875 -7.960938 13.832031 -5.945312 15.75 -4.6875 C 17.675781 -3.4375 20.609375 -2.769531 24.546875 -2.6875 L 24.546875 0 C 19.453125 -0.269531 14.3125 -0.40625 9.125 -0.40625 C 5.09375 -0.40625 1.738281 -0.269531 -0.9375 0 L -0.9375 -2.6875 C 3.53125 -3.757812 7.0625 -7.648438 9.65625 -14.359375 L 41.1875 -95.65625 L 43.328125 -95.65625 Z M 52.453125 -38.640625 L 37.421875 -78.75 L 22.140625 -38.640625 Z M 52.453125 -38.640625 "/></g></g></g><g fill="#000000" fill-opacity="1"><g transform="translate(1130.52354, 304.597994)"><g><path d="M 89.890625 -92.296875 C 86.753906 -92.117188 84.425781 -91.648438 82.90625 -90.890625 C 81.382812 -90.128906 80.351562 -88.875 79.8125 -87.125 C 79.28125 -85.382812 79.015625 -82.816406 79.015625 -79.421875 L 79.015625 0.671875 L 75.9375 0.671875 L 19.59375 -86.390625 L 19.59375 -15.5625 C 19.59375 -12.070312 19.878906 -9.476562 20.453125 -7.78125 C 21.035156 -6.082031 22.175781 -4.851562 23.875 -4.09375 C 25.570312 -3.332031 28.210938 -2.863281 31.796875 -2.6875 L 31.796875 0 C 28.578125 -0.269531 24.015625 -0.40625 18.109375 -0.40625 C 12.742188 -0.40625 8.585938 -0.269531 5.640625 0 L 5.640625 -2.6875 C 8.765625 -2.863281 11.085938 -3.332031 12.609375 -4.09375 C 14.128906 -4.851562 15.15625 -6.101562 15.6875 -7.84375 C 16.226562 -9.59375 16.5 -12.164062 16.5 -15.5625 L 16.5 -80.765625 C 16.5 -84.160156 16.226562 -86.617188 15.6875 -88.140625 C 15.15625 -89.660156 14.148438 -90.6875 12.671875 -91.21875 C 11.203125 -91.757812 8.859375 -92.117188 5.640625 -92.296875 L 5.640625 -94.984375 C 8.585938 -94.710938 12.742188 -94.578125 18.109375 -94.578125 C 22.128906 -94.578125 25.617188 -94.710938 28.578125 -94.984375 L 75.9375 -22 L 75.9375 -79.421875 C 75.9375 -82.910156 75.644531 -85.503906 75.0625 -87.203125 C 74.476562 -88.898438 73.335938 -90.128906 71.640625 -90.890625 C 69.941406 -91.648438 67.300781 -92.117188 63.71875 -92.296875 L 63.71875 -94.984375 C 66.9375 -94.710938 71.5 -94.578125 77.40625 -94.578125 C 82.769531 -94.578125 86.929688 -94.710938 89.890625 -94.984375 Z M 89.890625 -92.296875 "/></g></g></g><g fill="#000000" fill-opacity="1"><g transform="translate(1239.047856, 304.597994)"><g><path d="M 49.765625 -96.859375 C 55.140625 -96.859375 59.703125 -96.097656 63.453125 -94.578125 C 67.210938 -93.054688 70.878906 -90.910156 74.453125 -88.140625 C 75.441406 -87.335938 76.289062 -86.9375 77 -86.9375 C 78.789062 -86.9375 79.957031 -89.617188 80.5 -94.984375 L 83.578125 -94.984375 C 83.222656 -89.171875 83.046875 -78.882812 83.046875 -64.125 L 79.953125 -64.125 C 78.972656 -69.9375 78.078125 -74.117188 77.265625 -76.671875 C 76.460938 -79.222656 75.125 -81.660156 73.25 -83.984375 C 70.5625 -87.472656 67.140625 -90.085938 62.984375 -91.828125 C 58.828125 -93.578125 54.332031 -94.453125 49.5 -94.453125 C 43.6875 -94.453125 38.609375 -92.523438 34.265625 -88.671875 C 29.929688 -84.828125 26.554688 -79.347656 24.140625 -72.234375 C 21.734375 -65.128906 20.53125 -56.789062 20.53125 -47.21875 C 20.53125 -37.46875 21.828125 -29.101562 24.421875 -22.125 C 27.015625 -15.15625 30.613281 -9.859375 35.21875 -6.234375 C 39.820312 -2.617188 45.03125 -0.8125 50.84375 -0.8125 C 55.3125 -0.8125 59.644531 -1.660156 63.84375 -3.359375 C 68.050781 -5.054688 71.363281 -7.601562 73.78125 -11 C 75.570312 -13.5 76.867188 -16.179688 77.671875 -19.046875 C 78.484375 -21.910156 79.242188 -26.296875 79.953125 -32.203125 L 83.046875 -32.203125 C 83.046875 -16.816406 83.222656 -6.082031 83.578125 0 L 80.5 0 C 80.226562 -2.863281 79.84375 -4.898438 79.34375 -6.109375 C 78.851562 -7.316406 78.164062 -7.921875 77.28125 -7.921875 C 76.5625 -7.921875 75.617188 -7.5625 74.453125 -6.84375 C 70.429688 -3.976562 66.585938 -1.804688 62.921875 -0.328125 C 59.253906 1.140625 54.828125 1.875 49.640625 1.875 C 41.140625 1.875 33.691406 -0.046875 27.296875 -3.890625 C 20.898438 -7.734375 15.9375 -13.300781 12.40625 -20.59375 C 8.875 -27.882812 7.109375 -36.582031 7.109375 -46.6875 C 7.109375 -56.519531 8.921875 -65.238281 12.546875 -72.84375 C 16.171875 -80.445312 21.222656 -86.347656 27.703125 -90.546875 C 34.179688 -94.753906 41.535156 -96.859375 49.765625 -96.859375 Z M 49.765625 -96.859375 "/></g></g></g><g fill="#000000" fill-opacity="1"><g transform="translate(1345.157559, 304.597994)"><g><path d="M 74.328125 -17.171875 C 74.328125 -12.078125 74.640625 -6.351562 75.265625 0 C 69.179688 -0.269531 58.941406 -0.40625 44.546875 -0.40625 C 27.367188 -0.40625 14.398438 -0.269531 5.640625 0 L 5.640625 -2.6875 C 8.859375 -2.863281 11.203125 -3.21875 12.671875 -3.75 C 14.148438 -4.289062 15.15625 -5.320312 15.6875 -6.84375 C 16.226562 -8.363281 16.5 -10.820312 16.5 -14.21875 L 16.5 -80.765625 C 16.5 -84.160156 16.226562 -86.617188 15.6875 -88.140625 C 15.15625 -89.660156 14.148438 -90.6875 12.671875 -91.21875 C 11.203125 -91.757812 8.859375 -92.117188 5.640625 -92.296875 L 5.640625 -94.984375 C 14.398438 -94.710938 27.367188 -94.578125 44.546875 -94.578125 C 57.691406 -94.578125 67.035156 -94.710938 72.578125 -94.984375 C 71.953125 -89.078125 71.640625 -83.800781 71.640625 -79.15625 C 71.640625 -75.664062 71.773438 -72.890625 72.046875 -70.828125 L 68.953125 -70.828125 C 68.328125 -76.640625 67.519531 -80.953125 66.53125 -83.765625 C 65.550781 -86.585938 63.898438 -88.644531 61.578125 -89.9375 C 59.253906 -91.238281 55.722656 -91.890625 50.984375 -91.890625 L 39.84375 -91.890625 C 36.625 -91.890625 34.273438 -91.644531 32.796875 -91.15625 C 31.328125 -90.664062 30.320312 -89.660156 29.78125 -88.140625 C 29.25 -86.617188 28.984375 -84.160156 28.984375 -80.765625 L 28.984375 -49.09375 L 37.828125 -49.09375 C 40.960938 -49.09375 43.378906 -49.832031 45.078125 -51.3125 C 46.773438 -52.789062 47.914062 -54.535156 48.5 -56.546875 C 49.082031 -58.554688 49.550781 -61.082031 49.90625 -64.125 L 50.3125 -66.8125 L 53.390625 -66.8125 C 53.117188 -63.050781 52.984375 -58.847656 52.984375 -54.203125 L 52.984375 -47.765625 C 52.984375 -43.203125 53.253906 -36.847656 53.796875 -28.703125 L 50.71875 -28.703125 C 50.625 -29.335938 50.351562 -31.507812 49.90625 -35.21875 C 49.457031 -38.925781 48.226562 -41.71875 46.21875 -43.59375 C 44.207031 -45.476562 41.410156 -46.421875 37.828125 -46.421875 L 28.984375 -46.421875 L 28.984375 -14.21875 C 28.984375 -10.820312 29.25 -8.363281 29.78125 -6.84375 C 30.320312 -5.320312 31.328125 -4.3125 32.796875 -3.8125 C 34.273438 -3.320312 36.625 -3.078125 39.84375 -3.078125 L 49.640625 -3.078125 C 55.179688 -3.078125 59.40625 -3.816406 62.3125 -5.296875 C 65.21875 -6.773438 67.34375 -9.144531 68.6875 -12.40625 C 70.03125 -15.675781 71.015625 -20.484375 71.640625 -26.828125 L 74.71875 -26.828125 C 74.457031 -24.410156 74.328125 -21.191406 74.328125 -17.171875 Z M 74.328125 -17.171875 "/></g></g></g></svg>