<svg xmlns="http://www.w3.org/2000/svg" xmlns:xlink="http://www.w3.org/1999/xlink" width="500" zoomAndPan="magnify" viewBox="0 0 375 374.999991" height="500" preserveAspectRatio="xMidYMid meet" version="1.0"><defs><g/><clipPath id="a0f85a37a9"><path d="M 78.386719 44.363281 L 159 44.363281 L 159 288.316406 L 78.386719 288.316406 Z M 78.386719 44.363281 " clip-rule="nonzero"/></clipPath></defs><g fill="#010101" fill-opacity="1"><g transform="translate(94.396195, 345.518625)"><g><path d="M 3.703125 -6.734375 L 3.703125 0 L 1.828125 0 L 1.828125 -14.78125 L 11.734375 -14.78125 L 11.734375 -13.109375 L 3.703125 -13.109375 L 3.703125 -8.390625 L 10.75 -8.390625 L 10.75 -6.734375 Z M 3.703125 -6.734375 "/></g></g></g><g fill="#010101" fill-opacity="1"><g transform="translate(122.985561, 345.518625)"><g><path d="M 3.921875 -14.78125 L 3.921875 0 L 2.03125 0 L 2.03125 -14.78125 Z M 3.921875 -14.78125 "/></g></g></g><g fill="#010101" fill-opacity="1"><g transform="translate(144.830134, 345.518625)"><g><path d="M 13.09375 -14.78125 L 13.09375 0 L 10.96875 0 L 3.328125 -11.96875 L 3.328125 0 L 1.546875 0 L 1.546875 -14.78125 L 3.59375 -14.78125 L 11.296875 -2.703125 L 11.296875 -14.78125 Z M 13.09375 -14.78125 "/></g></g></g><g fill="#010101" fill-opacity="1"><g transform="translate(175.671513, 345.518625)"><g><path d="M 9.609375 -4.4375 L 3.921875 -4.4375 L 2.359375 0 L 0.34375 0 L 5.625 -14.78125 L 8.046875 -14.78125 L 13.234375 0 L 11.140625 0 Z M 9.078125 -6.015625 L 6.8125 -12.75 L 4.375 -6.015625 Z M 9.078125 -6.015625 "/></g></g></g><g fill="#010101" fill-opacity="1"><g transform="translate(205.398155, 345.518625)"><g><path d="M 13.09375 -14.78125 L 13.09375 0 L 10.96875 0 L 3.328125 -11.96875 L 3.328125 0 L 1.546875 0 L 1.546875 -14.78125 L 3.59375 -14.78125 L 11.296875 -2.703125 L 11.296875 -14.78125 Z M 13.09375 -14.78125 "/></g></g></g><g fill="#010101" fill-opacity="1"><g transform="translate(236.239528, 345.518625)"><g><path d="M 0.96875 -7.21875 C 0.96875 -7.6875 0.992188 -8.15625 1.046875 -8.625 C 1.109375 -9.09375 1.210938 -9.585938 1.359375 -10.109375 C 1.515625 -10.628906 1.703125 -11.117188 1.921875 -11.578125 C 2.148438 -12.035156 2.441406 -12.476562 2.796875 -12.90625 C 3.148438 -13.34375 3.550781 -13.710938 4 -14.015625 C 4.457031 -14.316406 5.003906 -14.554688 5.640625 -14.734375 C 6.273438 -14.921875 6.96875 -15.015625 7.71875 -15.015625 C 10.9375 -15.015625 12.835938 -13.40625 13.421875 -10.1875 L 11.484375 -10.1875 C 11.273438 -11.25 10.847656 -12.039062 10.203125 -12.5625 C 9.566406 -13.09375 8.664062 -13.359375 7.5 -13.359375 C 6.070312 -13.359375 4.941406 -12.8125 4.109375 -11.71875 C 3.273438 -10.625 2.859375 -9.128906 2.859375 -7.234375 C 2.859375 -5.378906 3.289062 -3.90625 4.15625 -2.8125 C 5.019531 -1.726562 6.1875 -1.1875 7.65625 -1.1875 C 8.875 -1.1875 9.804688 -1.53125 10.453125 -2.21875 C 11.097656 -2.90625 11.539062 -3.960938 11.78125 -5.390625 L 13.71875 -5.390625 C 13.257812 -1.484375 11.234375 0.46875 7.640625 0.46875 C 6.785156 0.46875 6.003906 0.347656 5.296875 0.109375 C 4.597656 -0.128906 4.007812 -0.453125 3.53125 -0.859375 C 3.0625 -1.265625 2.65625 -1.722656 2.3125 -2.234375 C 1.96875 -2.742188 1.703125 -3.296875 1.515625 -3.890625 C 1.328125 -4.484375 1.1875 -5.050781 1.09375 -5.59375 C 1.007812 -6.132812 0.96875 -6.675781 0.96875 -7.21875 Z M 0.96875 -7.21875 "/></g></g></g><g fill="#010101" fill-opacity="1"><g transform="translate(267.080901, 345.518625)"><g><path d="M 3.703125 -6.734375 L 3.703125 -1.671875 L 12.421875 -1.671875 L 12.421875 0 L 1.828125 0 L 1.828125 -14.78125 L 12.046875 -14.78125 L 12.046875 -13.109375 L 3.703125 -13.109375 L 3.703125 -8.390625 L 11.75 -8.390625 L 11.75 -6.734375 Z M 3.703125 -6.734375 "/></g></g></g><g fill="#010101" fill-opacity="1"><g transform="translate(88.97373, 279.531025)"><g><path d="M 34.664062 0 L 21.984375 -188.335938 C 21.773438 -191.925781 22.828125 -194.042969 24.308594 -194.042969 C 25.363281 -194.042969 26.84375 -192.984375 28.113281 -190.660156 C 31.285156 -185.375 103.785156 -49.25 103.785156 -49.25 C 103.785156 -49.25 166.5625 -183.894531 170.15625 -190.660156 C 171.425781 -192.984375 172.691406 -194.042969 173.75 -194.042969 C 175.230469 -194.042969 176.285156 -191.925781 176.285156 -188.335938 L 176.285156 0 L 194.042969 0 L 194.042969 -211.375 L 174.59375 -211.375 L 113.507812 -80.957031 C 112.027344 -77.996094 110.546875 -76.515625 108.859375 -76.515625 C 107.167969 -76.515625 105.476562 -77.996094 103.996094 -80.746094 L 34.242188 -211.375 L 16.910156 -211.375 L 16.910156 0 Z M 34.664062 0 "/></g></g></g><g clip-path="url(#a0f85a37a9)"><path fill="#ffffff" d="M 78.386719 44.363281 L 158.761719 44.363281 L 158.761719 288.585938 L 78.386719 288.585938 Z M 78.386719 44.363281 " fill-opacity="1" fill-rule="nonzero"/></g><g fill="#000000" fill-opacity="1"><g transform="translate(21.195847, 279.531025)"><g><path d="M 14.796875 27.054688 C 22.617188 32.339844 31.496094 34.664062 44.601562 34.664062 C 82.011719 34.664062 95.328125 5.285156 95.328125 -14.585938 L 95.328125 -211.375 L 78.417969 -211.375 L 78.417969 -8.878906 C 78.417969 10.144531 68.90625 30.4375 42.910156 30.4375 C 31.285156 30.4375 22.617188 27.480469 17.332031 23.039062 Z M 14.796875 27.054688 "/></g></g></g><g fill="#000000" fill-opacity="1"><g transform="translate(298.764623, 71.814885)"><g><path d="M 1.488281 -16.167969 L 1.488281 -7.835938 C 6.070312 -2.871094 13.300781 0 22.515625 0 C 37.859375 0 45.804688 -6.621094 45.804688 -16.167969 C 45.804688 -24.007812 40.949219 -28.585938 31.125 -30.519531 C 29.46875 -30.847656 29.195312 -31.234375 31.015625 -31.84375 C 35.152344 -33.222656 41.941406 -36.421875 41.941406 -43.816406 C 41.941406 -52.980469 33 -57.394531 22.074219 -57.394531 C 11.535156 -57.394531 3.585938 -53.53125 3.585938 -46.910156 C 3.585938 -42.382812 6.511719 -40.671875 8.941406 -40.78125 C 10.539062 -40.839844 12.25 -41.832031 12.25 -43.265625 C 9.601562 -43.265625 7.945312 -45.03125 7.945312 -47.679688 C 7.945312 -52.039062 11.480469 -56.289062 22.238281 -56.289062 C 31.179688 -56.289062 37.304688 -51.269531 37.304688 -43.320312 C 37.304688 -34.65625 27.425781 -31.289062 22.957031 -31.289062 C 17.605469 -31.289062 13.355469 -32.0625 10.320312 -33.058594 L 10.320312 -28.253906 C 13.246094 -29.359375 16.886719 -30.242188 21.6875 -30.242188 C 30.738281 -30.242188 41.28125 -26.160156 41.28125 -15.839844 C 41.28125 -7.945312 35.152344 -1.105469 24.722656 -1.105469 C 13.742188 -1.105469 7.007812 -6.789062 1.488281 -16.167969 Z M 1.488281 -16.167969 "/></g></g></g></svg>